<svg width="835" height="339" viewBox="0 0 835 339" fill="none" xmlns="http://www.w3.org/2000/svg">
<path d="M144.6 56.8C144.6 59.4667 144.333 61.9333 143.8 64.2C143.267 66.4667 142.067 68.7333 140.2 71C142.067 73.2667 143.267 75.4667 143.8 77.6C144.333 79.7333 144.6 82.3333 144.6 85.4V112.8C144.6 116.533 143.867 120.133 142.4 123.6C140.933 126.933 138.933 129.933 136.4 132.6C133.867 135.133 130.867 137.2 127.4 138.8C123.933 140.267 120.267 141 116.4 141H4.6V0.99999H116.4C120.267 0.99999 123.933 1.73333 127.4 3.2C130.867 4.53333 133.867 6.46666 136.4 8.99999C138.933 11.5333 140.933 14.5333 142.4 18C143.867 21.4667 144.6 25.2667 144.6 29.4V56.8ZM114.4 57C115.467 57 116 56.2667 116 54.8V30.4C116 29.4667 115.467 29 114.4 29H33.2V57.2L114.4 57ZM114.4 113C115.467 113 116 112.2 116 110.6V86.4C116 85.4667 115.467 85 114.4 85H33.2V113H114.4ZM287.489 84.8L319.689 141H287.489L255.089 84.8H203.489V141H175.889V56.8H285.089C286.422 56.8 287.089 56.2 287.089 55V31.8C287.089 29.9333 286.422 29 285.089 29H175.889V0.99999H287.289C291.156 0.99999 294.822 1.79999 298.289 3.4C301.756 4.86666 304.756 6.86666 307.289 9.39999C309.956 11.9333 312.022 14.8667 313.489 18.2C314.956 21.5333 315.689 25 315.689 28.6V57.2C315.689 61.0667 314.956 64.7333 313.489 68.2C312.022 71.5333 309.956 74.4667 307.289 77C304.756 79.4 301.756 81.3333 298.289 82.8C294.822 84.1333 291.156 84.8 287.289 84.8H287.489ZM373.583 0.99999V111C373.583 111.667 373.849 112.2 374.383 112.6C374.916 112.867 375.316 113 375.583 113H454.383C455.716 113 456.383 112.333 456.383 111V0.99999H484.983V113C484.983 116.867 484.249 120.533 482.783 124C481.316 127.333 479.316 130.267 476.783 132.8C474.249 135.333 471.249 137.333 467.783 138.8C464.449 140.267 460.849 141 456.983 141H372.983C369.249 141 365.649 140.267 362.183 138.8C358.849 137.333 355.916 135.333 353.383 132.8C350.849 130.267 348.783 127.333 347.183 124C345.716 120.533 344.983 116.867 344.983 113V0.99999H373.583ZM658.272 0.99999V141H629.672L546.872 43.4V141H518.272V0.99999H546.872L629.672 98.6V0.99999H658.272ZM685.467 141L746.267 0.799993H773.867L834.667 141H804.267L792.267 113.2H727.867L715.867 141H685.467ZM760.067 38.6L740.067 84.8H780.067L760.067 38.6ZM0.600001 227C0.600001 223.133 1.33333 219.533 2.8 216.2C4.4 212.733 6.46667 209.733 9 207.2C11.5333 204.667 14.4667 202.667 17.8 201.2C21.2667 199.733 24.8667 199 28.6 199H141.2V227H31.2C29.8667 227 29.2 227.667 29.2 229V309C29.2 310.333 29.8667 311 31.2 311H141.2V339H28.6C24.8667 339 21.2667 338.267 17.8 336.8C14.4667 335.333 11.5333 333.333 9 330.8C6.46667 328.267 4.4 325.333 2.8 322C1.33333 318.533 0.600001 314.867 0.600001 311V227ZM312.173 255.2V283.2H200.973V311H312.173V339H172.373V255.2H312.173ZM172.373 199H312.173V227H172.373V199ZM455.867 199C459.734 199 463.334 199.8 466.667 201.4C470.134 202.867 473.067 204.867 475.467 207.4C478.001 209.933 479.934 212.867 481.267 216.2C482.734 219.533 483.467 223 483.467 226.6V311.2C483.467 314.933 482.734 318.467 481.267 321.8C479.934 325.133 478.001 328.067 475.467 330.6C473.067 333.133 470.134 335.2 466.667 336.8C463.334 338.267 459.734 339 455.867 339H343.467V255.2H372.067V311H453.867C455.201 311 455.867 310.133 455.867 308.4V229C455.867 227.667 455.201 227 453.867 227H343.467V199H455.867ZM630.263 282.8L662.463 339H630.263L597.863 282.8H546.263V339H518.663V254.8H627.863C629.196 254.8 629.863 254.2 629.863 253V229.8C629.863 227.933 629.196 227 627.863 227H518.663V199H630.063C633.929 199 637.596 199.8 641.063 201.4C644.529 202.867 647.529 204.867 650.063 207.4C652.729 209.933 654.796 212.867 656.263 216.2C657.729 219.533 658.463 223 658.463 226.6V255.2C658.463 259.067 657.729 262.733 656.263 266.2C654.796 269.533 652.729 272.467 650.063 275C647.529 277.4 644.529 279.333 641.063 280.8C637.596 282.133 633.929 282.8 630.063 282.8H630.263ZM797.956 199C801.823 199 805.423 199.8 808.756 201.4C812.223 202.867 815.156 204.867 817.556 207.4C820.09 209.933 822.023 212.867 823.356 216.2C824.823 219.533 825.556 223 825.556 226.6V310.4C825.556 314.267 824.823 317.933 823.356 321.4C822.023 324.867 820.09 327.933 817.556 330.6C815.156 333.133 812.223 335.2 808.756 336.8C805.423 338.267 801.823 339 797.956 339H714.156C710.29 339 706.623 338.267 703.156 336.8C699.69 335.2 696.623 333.133 693.956 330.6C691.423 327.933 689.423 324.867 687.956 321.4C686.49 317.933 685.756 314.267 685.756 310.4V226.6C685.756 223 686.49 219.533 687.956 216.2C689.423 212.867 691.423 209.933 693.956 207.4C696.623 204.867 699.69 202.867 703.156 201.4C706.623 199.8 710.29 199 714.156 199H797.956ZM796.956 228.8C796.956 227.867 796.756 227.333 796.356 227.2C795.956 227.067 795.556 227 795.156 227H716.356C715.823 227 715.356 227.067 714.956 227.2C714.556 227.333 714.356 227.867 714.356 228.8V309.2C714.356 310.133 714.556 310.667 714.956 310.8C715.356 310.933 715.823 311 716.356 311H795.156C795.556 311 795.956 310.933 796.356 310.8C796.756 310.667 796.956 310.133 796.956 309.2V228.8Z" fill="white"/>
</svg>
